<svg width="36" height="36" viewBox="0 0 36 36" fill="none" xmlns="http://www.w3.org/2000/svg">
<path d="M24 34.125H12C7.47 34.125 4.875 31.53 4.875 27V12.375C4.875 7.65 7.275 5.25 12 5.25C12.615 5.25 13.125 5.76 13.125 6.375C13.125 6.975 13.365 7.545 13.785 7.965C14.205 8.385 14.775 8.625 15.375 8.625H20.625C21.87 8.625 22.875 7.62 22.875 6.375C22.875 5.76 23.385 5.25 24 5.25C28.725 5.25 31.125 7.65 31.125 12.375V27C31.125 31.53 28.53 34.125 24 34.125ZM11.025 7.53001C8.65496 7.72501 7.125 8.79 7.125 12.375V27C7.125 30.33 8.67 31.875 12 31.875H24C27.33 31.875 28.875 30.33 28.875 27V12.375C28.875 8.79 27.345 7.74001 24.975 7.53001C24.465 9.45001 22.71 10.875 20.625 10.875H15.375C14.175 10.875 13.05 10.41 12.195 9.55499C11.625 8.98499 11.235 8.29501 11.025 7.53001Z" fill="white"/>
<path d="M20.625 10.875H15.375C14.175 10.875 13.05 10.41 12.195 9.55499C11.34 8.69999 10.875 7.575 10.875 6.375C10.875 3.9 12.9 1.875 15.375 1.875H20.625C21.825 1.875 22.95 2.34001 23.805 3.19501C24.66 4.05001 25.125 5.175 25.125 6.375C25.125 8.85 23.1 10.875 20.625 10.875ZM15.375 4.125C14.13 4.125 13.125 5.13 13.125 6.375C13.125 6.975 13.365 7.545 13.785 7.965C14.205 8.385 14.775 8.625 15.375 8.625H20.625C21.87 8.625 22.875 7.62 22.875 6.375C22.875 5.775 22.635 5.205 22.215 4.785C21.795 4.365 21.225 4.125 20.625 4.125H15.375Z" fill="white"/>
<path d="M18 20.625H12C11.385 20.625 10.875 20.115 10.875 19.5C10.875 18.885 11.385 18.375 12 18.375H18C18.615 18.375 19.125 18.885 19.125 19.5C19.125 20.115 18.615 20.625 18 20.625Z" fill="white"/>
<path d="M24 26.625H12C11.385 26.625 10.875 26.115 10.875 25.5C10.875 24.885 11.385 24.375 12 24.375H24C24.615 24.375 25.125 24.885 25.125 25.5C25.125 26.115 24.615 26.625 24 26.625Z" fill="white"/>
</svg>
