<svg width="36" height="36" viewBox="0 0 36 36" fill="none" xmlns="http://www.w3.org/2000/svg">
<path d="M22.5 34.125H13.5C5.355 34.125 1.875 30.645 1.875 22.5V13.5C1.875 5.355 5.355 1.875 13.5 1.875H22.5C30.645 1.875 34.125 5.355 34.125 13.5V22.5C34.125 30.645 30.645 34.125 22.5 34.125ZM13.5 4.125C6.585 4.125 4.125 6.585 4.125 13.5V22.5C4.125 29.415 6.585 31.875 13.5 31.875H22.5C29.415 31.875 31.875 29.415 31.875 22.5V13.5C31.875 6.585 29.415 4.125 22.5 4.125H13.5Z" fill="#982576"/>
<path d="M13.5 16.125C11.22 16.125 9.375 14.28 9.375 12C9.375 9.72 11.22 7.875 13.5 7.875C15.78 7.875 17.625 9.72 17.625 12C17.625 14.28 15.78 16.125 13.5 16.125ZM13.5 10.125C12.465 10.125 11.625 10.965 11.625 12C11.625 13.035 12.465 13.875 13.5 13.875C14.535 13.875 15.375 13.035 15.375 12C15.375 10.965 14.535 10.125 13.5 10.125Z" fill="#982576"/>
<path d="M4.00515 29.5498C3.64515 29.5498 3.28515 29.3698 3.07515 29.0548C2.73015 28.5448 2.86515 27.8398 3.39015 27.4948L10.7851 22.5298C12.4051 21.4348 14.6401 21.5698 16.1101 22.8148L16.6051 23.2498C17.3551 23.8948 18.6301 23.8948 19.3651 23.2498L25.6051 17.8948C27.1951 16.5298 29.7001 16.5298 31.3051 17.8948L33.7501 19.9948C34.2151 20.3998 34.2751 21.1048 33.8701 21.5848C33.4651 22.0498 32.7601 22.1098 32.2801 21.7048L29.8351 19.6048C29.0851 18.9598 27.8101 18.9598 27.0601 19.6048L20.8201 24.9598C19.2301 26.3248 16.7251 26.3248 15.1201 24.9598L14.6251 24.5248C13.9351 23.9398 12.7951 23.8798 12.0301 24.4048L4.63515 29.3698C4.44015 29.4898 4.21515 29.5498 4.00515 29.5498Z" fill="#982576"/>
</svg>
