<svg width="36" height="36" viewBox="0 0 36 36" fill="none" xmlns="http://www.w3.org/2000/svg">
<path d="M22.5 34.125H13.5C5.355 34.125 1.875 30.645 1.875 22.5V13.5C1.875 5.355 5.355 1.875 13.5 1.875H22.5C30.645 1.875 34.125 5.355 34.125 13.5V22.5C34.125 30.645 30.645 34.125 22.5 34.125ZM13.5 4.125C6.585 4.125 4.125 6.585 4.125 13.5V22.5C4.125 29.415 6.585 31.875 13.5 31.875H22.5C29.415 31.875 31.875 29.415 31.875 22.5V13.5C31.875 6.585 29.415 4.125 22.5 4.125H13.5Z" fill="#982576"/>
<path d="M32.2193 11.7891H3.7793C3.1643 11.7891 2.6543 11.2791 2.6543 10.6641C2.6543 10.0491 3.1493 9.53906 3.7793 9.53906H32.2193C32.8343 9.53906 33.3443 10.0491 33.3443 10.6641C33.3443 11.2791 32.8493 11.7891 32.2193 11.7891Z" fill="#982576"/>
<path d="M12.7793 11.5791C12.1643 11.5791 11.6543 11.0691 11.6543 10.4541V3.16406C11.6543 2.54906 12.1643 2.03906 12.7793 2.03906C13.3943 2.03906 13.9043 2.54906 13.9043 3.16406V10.4541C13.9043 11.0691 13.3943 11.5791 12.7793 11.5791Z" fill="#982576"/>
<path d="M23.2207 10.9041C22.6057 10.9041 22.0957 10.3941 22.0957 9.77906V3.16406C22.0957 2.54906 22.6057 2.03906 23.2207 2.03906C23.8357 2.03906 24.3457 2.54906 24.3457 3.16406V9.77906C24.3457 10.4091 23.8507 10.9041 23.2207 10.9041Z" fill="#982576"/>
<path d="M16.635 27.1799C16.095 27.1799 15.585 27.0449 15.12 26.7899C14.1 26.1899 13.5 24.9899 13.5 23.4749V19.8749C13.5 18.3599 14.1 17.1449 15.135 16.5449C16.17 15.9449 17.52 16.0349 18.825 16.7999L21.945 18.5999C23.25 19.3499 24.015 20.4749 24.015 21.6749C24.015 22.8749 23.25 23.9999 21.93 24.7499L18.81 26.5499C18.09 26.9699 17.34 27.1799 16.635 27.1799ZM16.65 18.4049C16.5 18.4049 16.365 18.4349 16.26 18.4949C15.945 18.6749 15.75 19.1849 15.75 19.8749V23.4749C15.75 24.1499 15.945 24.6599 16.26 24.8549C16.575 25.0349 17.115 24.9449 17.7 24.5999L20.82 22.7999C21.405 22.4549 21.765 22.0349 21.765 21.6749C21.765 21.3149 21.42 20.8949 20.82 20.5499L17.7 18.7499C17.31 18.5249 16.935 18.4049 16.65 18.4049Z" fill="#982576"/>
</svg>
